<?xml version="1.0" encoding="iso-8859-1"?>
<!-- Generator: Adobe Illustrator 16.0.0, SVG Export Plug-In . SVG Version: 6.00 Build 0)  -->
<!DOCTYPE svg PUBLIC "-//W3C//DTD SVG 1.1//EN" "http://www.w3.org/Graphics/SVG/1.1/DTD/svg11.dtd">
<svg version="1.1" id="Capa_1" xmlns="http://www.w3.org/2000/svg" xmlns:xlink="http://www.w3.org/1999/xlink" x="0px" y="0px"
	 width="467.879px" height="467.879px" viewBox="0 0 467.879 467.879" style="enable-background:new 0 0 467.879 467.879;"
	 xml:space="preserve">
<g>
	<path d="M372.467,178.758c0,2.132-1.729,3.854-3.857,3.854s-3.857-1.723-3.857-3.854c0-2.129,1.729-3.856,3.857-3.856
		C370.734,174.902,372.467,176.629,372.467,178.758z M254.086,174.902c-2.134,0-3.857,1.727-3.857,3.856
		c0,2.132,1.729,3.854,3.857,3.854c2.123,0,3.852-1.723,3.852-3.854C257.938,176.629,256.209,174.902,254.086,174.902z
		 M137.815,174.902c-2.132,0-3.855,1.727-3.855,3.856c0,2.132,1.73,3.854,3.855,3.854c2.124,0,3.856-1.723,3.856-3.854
		C141.671,176.629,139.943,174.902,137.815,174.902z M421.65,217.129c0,25.532,20.695,46.228,46.229,46.228v57.436h-14.011v33.618
		h-18.21v-33.618h-20.441v33.618h-18.214v-33.618h-22.029v33.618h-18.209v-33.618h-20.446v33.618h-18.21v-33.618h-20.891v33.618
		h-18.213v-33.618h-20.442v33.618h-18.211v-33.618h-19.609v33.618h-18.209v-33.618h-18.212v33.618h-18.21v-33.618h-22.393v33.618
		h-18.21v-33.618h-20.446v33.618H86.851v-33.618H67.24v33.618H49.029v-33.618h-18.21v33.618H12.607v-33.618H0v-57.436
		c25.535,0,46.227-20.696,46.227-46.228c0-25.529-20.692-46.227-46.227-46.227v-57.435h467.879v57.435
		C442.345,170.902,421.65,191.6,421.65,217.129z M163.7,182.536h-7.529v-1.849h-7.347v-10.559H98.888V180.5h-7.529v1.844h-7.533
		v4.684h7.533v2.836h7.529v6.327h-7.529v1.847h-7.533v4.679h7.533v2.837h7.529v7.256h-7.529v1.845h-7.533v4.684h7.533v2.834h7.529
		v6.791h-7.529v1.85h-7.533v4.681h7.533v2.835h7.529v6.058h-7.529v1.846h-7.533v4.683h7.533v2.835h7.529v10.374h49.937v-10.178
		h7.347v-2.834h7.529v-4.685h-7.529v-1.849h-7.347v-6.054h7.347v-2.834h7.529v-4.682h-7.529v-1.843h-7.347v-6.792h7.347v-2.834
		h7.529v-4.68h-7.529v-1.848h-7.347v-7.258h7.347v-2.834h7.529v-4.679h-7.529v-1.844h-7.347v-6.325h7.347v-2.834h7.529V182.536z
		 M281.372,182.536h-7.531v-1.849h-7.344v-10.559h-49.939V180.5h-7.529v1.844h-7.532v4.684h7.532v2.836h7.529v6.327h-7.529v1.847
		h-7.532v4.679h7.532v2.837h7.529v7.256h-7.529v1.845h-7.532v4.684h7.532v2.834h7.529v6.791h-7.529v1.85h-7.532v4.681h7.532v2.835
		h7.529v6.058h-7.529v1.846h-7.532v4.683h7.532v2.835h7.529v10.374h49.939v-10.178h7.344v-2.834h7.531v-4.685h-7.531v-1.849h-7.344
		v-6.054h7.344v-2.834h7.531v-4.682h-7.531v-1.843h-7.344v-6.792h7.344v-2.834h7.531v-4.68h-7.531v-1.848h-7.344v-7.258h7.344
		v-2.834h7.531v-4.679h-7.531v-1.844h-7.344v-6.325h7.344v-2.834h7.531V182.536z M394.5,182.536h-7.531v-1.849h-7.344v-10.559
		h-49.937V180.5h-7.53v1.844h-7.528v4.684h7.528v2.836h7.53v6.327h-7.53v1.847h-7.528v4.679h7.528v2.837h7.53v7.256h-7.53v1.845
		h-7.528v4.684h7.528v2.834h7.53v6.791h-7.53v1.85h-7.528v4.681h7.528v2.835h7.53v6.058h-7.53v1.846h-7.528v4.683h7.528v2.835h7.53
		v10.374h49.937v-10.178h7.344v-2.834h7.531v-4.685h-7.531v-1.849h-7.344v-6.054h7.344v-2.834h7.531v-4.682h-7.531v-1.843h-7.344
		v-6.792h7.344v-2.834h7.531v-4.68h-7.531v-1.848h-7.344v-7.258h7.344v-2.834h7.531v-4.679h-7.531v-1.844h-7.344v-6.325h7.344
		v-2.834h7.531V182.536L394.5,182.536z"/>
</g>
<g>
</g>
<g>
</g>
<g>
</g>
<g>
</g>
<g>
</g>
<g>
</g>
<g>
</g>
<g>
</g>
<g>
</g>
<g>
</g>
<g>
</g>
<g>
</g>
<g>
</g>
<g>
</g>
<g>
</g>
</svg>
