<?xml version="1.0" encoding="iso-8859-1"?>
<!-- Generator: Adobe Illustrator 16.0.0, SVG Export Plug-In . SVG Version: 6.00 Build 0)  -->
<!DOCTYPE svg PUBLIC "-//W3C//DTD SVG 1.1//EN" "http://www.w3.org/Graphics/SVG/1.1/DTD/svg11.dtd">
<svg version="1.1" id="Capa_1" xmlns="http://www.w3.org/2000/svg" xmlns:xlink="http://www.w3.org/1999/xlink" x="0px" y="0px"
	 width="45.46px" height="45.46px" viewBox="0 0 45.46 45.46" style="enable-background:new 0 0 45.46 45.46;" xml:space="preserve"
	>
<g>
	<g>
		<path d="M29.436,15.745H16.025c-0.155,0-0.28,0.126-0.28,0.28v13.412c0,0.153,0.125,0.278,0.28,0.278h13.411
			c0.154,0,0.279-0.125,0.279-0.278V16.025C29.715,15.871,29.59,15.745,29.436,15.745z"/>
		<path d="M42.877,25.308c1.428,0,2.583-1.149,2.583-2.577s-1.155-2.577-2.583-2.577H38.83v-2.092h4.047
			c1.428,0,2.583-1.15,2.583-2.577c0-1.427-1.155-2.578-2.583-2.578h-4.046c-0.247-3.354-2.925-6.029-6.276-6.276V2.584
			c0-1.427-1.152-2.583-2.578-2.583S27.4,1.157,27.4,2.584v4.047h-2.092V2.584c0-1.427-1.152-2.583-2.579-2.583
			c-1.427,0-2.578,1.156-2.578,2.583v4.047H18.06V2.584c0.001-1.427-1.15-2.583-2.577-2.583c-1.427,0-2.578,1.156-2.578,2.583V6.63
			c-3.353,0.247-6.029,2.924-6.276,6.276H2.583C1.156,12.906,0,14.057,0,15.484c0,1.427,1.156,2.577,2.583,2.577H6.63v2.092H2.583
			C1.156,20.153,0,21.303,0,22.73s1.156,2.578,2.583,2.578H6.63v2.092H2.583C1.156,27.399,0,28.55,0,29.978
			c0,1.426,1.156,2.576,2.583,2.576h4.046c0.247,3.354,2.924,6.029,6.276,6.276v4.047c0,1.426,1.151,2.582,2.578,2.582
			c1.427,0,2.577-1.156,2.577-2.582v-4.048h2.092v4.048c0,1.426,1.151,2.582,2.578,2.582c1.426,0,2.579-1.156,2.579-2.582v-4.048
			H27.4v4.048c0,1.426,1.149,2.582,2.576,2.582c1.428,0,2.578-1.156,2.578-2.582v-4.046c3.354-0.247,6.029-2.924,6.276-6.275h4.046
			c1.428,0,2.583-1.15,2.583-2.578c0-1.427-1.155-2.576-2.583-2.576H38.83v-2.094H42.877z M33.824,29.437
			c0,2.434-1.956,4.39-4.389,4.39H16.025c-2.434,0-4.389-1.956-4.389-4.39V16.025c0-2.433,1.956-4.389,4.389-4.389h13.411
			c2.434,0,4.389,1.956,4.389,4.389V29.437z"/>
	</g>
</g>
<g>
</g>
<g>
</g>
<g>
</g>
<g>
</g>
<g>
</g>
<g>
</g>
<g>
</g>
<g>
</g>
<g>
</g>
<g>
</g>
<g>
</g>
<g>
</g>
<g>
</g>
<g>
</g>
<g>
</g>
</svg>
